<svg id="Layer_1" xmlns="http://www.w3.org/2000/svg" viewBox="0 0 364 364"><style>.st0{fill-rule:evenodd;clip-rule:evenodd}</style><path class="st0" d="M149 122.8c-2.8 11.4-20.1 77.2-20.1 77.2h42.2s-18.8-65.8-21.6-77.2h-.5zm0 0"/><path class="st0" d="M0 0v364h364V0H0zm192 281.3l-14.7-48.9h-54.6L109 281.3H64.4l58.4-190.6h56.5l59.1 190.6H192zm106.2 0h-43.1V143h43.1v138.3zM276.4 126c-13.5 0-22.7-9.7-22.3-21.5-.3-12.5 8.8-21.8 22.7-21.8 13.9 0 22.5 9.3 22.9 21.8-.1 11.8-9.1 21.5-23.3 21.5zm0 0"/></svg>