<svg id="Layer_1" xmlns="http://www.w3.org/2000/svg" viewBox="0 0 364 364"><style>.st0{fill-rule:evenodd;clip-rule:evenodd}</style><path class="st0" d="M213.9 172.5c-19 0-28.9 17-28.9 38.3 0 22.8 11.2 37.1 28.6 37.1 12.1 0 21.8-8.3 24.2-20.1.9-3 1.1-6.1 1.1-9.6v-17.5c0-2.2-.3-5.3-.6-7.5-2.4-11.3-11.4-20.7-24.4-20.7zm0 0"/><path class="st0" d="M0 0v364h364V0H0zm124.1 278.2H82V92.6h42.1v185.6zm120.7 0l-1.8-19.8h-.6c-8.5 15.1-24.8 22.9-42.1 22.9-32 0-57.5-27.3-57.5-69.1-.4-45.5 28-71.6 60.3-71.6 16.6 0 29.5 5.8 35.6 15.2h.5v-73h41.9V238c0 15.2.6 31.2 1.1 40.2h-37.4zm0 0"/></svg>