<svg id="Layer_1" xmlns="http://www.w3.org/2000/svg" viewBox="0 0 364 364"><style>.st0{fill-rule:evenodd;clip-rule:evenodd}</style><path class="st0" d="M119.5 115.8c-8.9 0-15 .9-18 1.8v57.3c3.8.8 8.3 1.1 14.6 1.1 23.3 0 37.8-11.8 37.8-31.7-.1-17.8-12.5-28.5-34.4-28.5zm0 0"/><path class="st0" d="M0 0v364h364V0H0zm179.4 189.4c-14.9 14.1-37.1 20.4-63.1 20.4-5.7 0-10.9-.2-15-.8v69.5H57.9V86.8c13.5-2.3 32.5-4 59.3-4 27.1 0 46.4 5.1 59.3 15.6 12.5 9.8 20.8 25.9 20.8 45 0 18.8-6.3 35-17.9 46zm65.6 91.9c-18.4 0-34.9-4-45.5-9.8l7.8-31.4c8.1 4.8 24.7 10.6 37.7 10.6 13.2 0 18.7-4.6 18.7-11.8 0-7.2-4.3-10.6-20.7-16.1-29.2-9.8-40.4-25.6-40.1-42.4 0-26.2 22.5-46.1 57.3-46.1 16.5 0 31.2 3.7 39.8 8.1l-7.8 30.3c-6.4-3.5-18.4-8.1-30.5-8.1-10.6 0-16.7 4.3-16.7 11.5 0 6.6 5.4 10.1 22.7 16.2 26.8 9.2 38 22.8 38.3 43.5.1 26.2-20.7 45.5-61 45.5zm0 0"/></svg>