<svg xmlns="http://www.w3.org/2000/svg" viewBox="0 0 364 364"><path d="M108.5 93.1h-2.8l.2 2.5 2.6-2.5zm-.4 47l-2.4-8.7-8.5 3.1.1 6.9 5.4-3.1-.7 5.2 6.1-3.4zm-3.3-75.8l-3 1.2.7 6-6.2-3.9.3 4.7-2.1-1.2-2.3 1.9 5.4 3.6.3-2 2.2 1.5-.8 1.7 4 6.4 6.9-.7.4 5.3 2.4-.4 1.8-4.6 4-2.2-2.1-1.4-3.4.6-6-2.9.7-9-3.2-4.6zm11 45l-3.6-.5-4.8-4.9-5.5 3.5 7.7 3.4-4.3 2.1 1.2 1.6-5.1 3.4 11-2.2.4 1.6 5.2-3.6-2.2-4.4zm-15.6-20.7l2.4 4.3 2-1.7-1.5-3-2.9.4zm13 43.7l4.6-9.1-10.2 8.6 2 4.8 3.6-4.3zm-19.4-26l3.8-1.5 1.3-4.1-5.1 5.6zm11.1 17.1l-1.8 5.2 2.6-2.4-.8-2.8zm71.3-102l-2-2.7-2.5.5 3.2 4.7 1.3-2.5zm-1-7.5l.3 3.9 5.6-.6 3.1 1.7.1-4.1-6.5.5 2.1-2.2-3.5-3.1-4.4.4v4.7l1.9 2 1.3-3.2zm5.7-6l-2.8.4 2.3 2.3.5-2.7zm-61.2 182.6l-4.4-.7 1.7-4.2-1.7-3.2 3.3-.4 3.4 9.3-1.8-11.9-8.1-.4 4.4-3-8.7-11.2-.6-5-4.4-2.1-9-.9-5.7 3.3-3.4.4-1.9 1.9-5.6 1-2.8 2.8-4 1.9-1.8 4.7-6 .8-6.5 12.1 12.5 10.5 4.3-.8 1.8-7.4 3.4-2.4 8.7 4 5.6 10.1 4.4.7 6.4 4 1.2.2-.4-4 2.7.6 4.5-3.3.5-3.9 7 1 1-4.5zm171.9 107.8l-2 1 3.6 1.7 3-.8-1.8-1.8-2.8-.1zM124 142.5l1.5 7.7 5.7 2.2 1.7-5.3-4.1-7.6-4.8 3zm188.5 111.9l-1.3-6.6-10-7.1-13.9-.6-8.6.2-.7 5.9-2.3 3.4-4.6-4.6-5.4-1.2 8.6-7.8v-4.8l-6.8-10-2.7-.4-6-3.2-2.5-3.8-3.1.6-2.1.6-3.7-1.1h-2.1l4.1-1 2.7.6 4.4-.9 2.8 1.1 2.3 2.2 3.1-.5 2.9.6-8-9-3.8-4.4 2.4-3.4 2.2-.7-4-2-1.7-2.7-1.8-.2-4.7-7.8-7.1-3.3-10.1-2-.3-3.6-2.2-1.2-3.2-9.7-3.6-5.5-2.4-12.5-3-4.2h-2.7l-8.4-11.2-5-1-3.9-2.9-6.4-2.3-2.5 2-5 3-7.2-2.1-3.2.4-5.7-1.6-1.6-2.9 3.4 1.6 6.8.5 5.6-1.7 1.7-4.1 5.8.2 5.2-3.5-5.3-2.3-.4-2.8-2.2-1.5-7.3 3.5-1.2-1.3 5.7-3.8 6.8.4 4-3.1.6-2.8 2.8-1.7 4-6.9 2.5-3.3-.4-2.2 2.8-4.7-1-1.6 2.6-6.5 4.7-3.7v-4.2l-7.1-5.8-1.4 1.1-12.1.4-7.4-1.2-2.1 1.4h-3.6l-4.5-1.5-3.2.1-.4 1.5-4.5 1.2-4.9 2.4-2-.1-3.3 2.4-1-.9 4.6-4.6 4.5-6.7-3.4 1.7-4.2-1.5 2.5-1.4.9-3.2 11.7-8 3.5-5.2 4-1.3 1.9-4.7-2-2 2.3-3.3-.3-2.1h-5.8l-2.4 2.3-3.7-1-5.6 2.3-5.3-.4-4.3 1.6-2.5.1-2.6 2.3.6-2.5-2.4-1-4.8 3.9 1.4-3.5-6.7-2.8-1.1 3.7-2.3 1.6.7 3.4-1.4.1.2 4.3-4.8.9 2.3 3.6-2 3.6-2.4.1 5.8 4.7 2 3.3-5.9-2.7-2.1 1.7-4.3-2.6-.3 1.9 1.1 2.5-1.4 1.9-2.2-4-2.1 4.3 2.3 2.3-1.7 2.2 3.5 3.6 3.4.1-4 1.4-4.1-2.1.9 5.9-.1 2 7.5-1.1-4.9 2.2-.5 1.2 1.5 1L124 79l-1.1 1.2 1.9 2.2-3.5-1.2-1.4.8-1 2.8 1.9 1.2-2.8.4-1.8 2.5 3.3 1 .8 2.3-5.4-1.9-1 3.3 2.1 1.3-1.2 2.2-2.4 1.7-5.4.1-2.2 2.2 2 1.1 4.4-.3 3 .9-.8 1.2H110l4.7 4 1.5-.6 2.4 2.3 12.2-11.1-2 3.4 1.8 1-3.6 1.2-2.9 6.4.3 1.6-3.8 6.4 1.7.8-3.2 7.7.8 5.1-2.3 2.8 1.7 2.6 2.1-1-3.9 5.5-.6 7.7-2.9 2.6.3 1.8h6.3l-.9-4 2.8-5.8-.2-3.5 3.3-3.7-2.5-9.5 2.3-.1 7.6-8.1-5.8 7.7-.6 5.6 2.1 1.4.5-3.3 3.8-2.7 1.6 5.1 3.1-6.3-.7-4.3 2.5-1.1-1 5.6 6.3 4.3-5.4-1.4-2 7.2 1.3 5.3 3.3.7 1.9 4.6-4.9 4.6-4.9 11.6 1.1 5.2-4.4-2.4.3 5.6 5.8 7.4-1.8-6.8 4.1-1.1 10.5 6.9.3-5.4-4.4-3.2 2.8-.6 8.4 4.8 5.9-.9v-2.2l5.5.1 1.5-4.5 14.8.6-9.7 2.3-5.9 15.3 7.3 11.9 3.7-1.9v6.4l4.7-5.3 6 .8-2.1 6.4 1.8 1.1-5.9 4.2 1.8 7.2-3.2 5.6 3.7 4.3 4.3 3.4 3.6.3-2.4 1.6-3.9.2-3.4-4.3-3.3 1.2 2.7 4.2 2.9 1.7-4.6-.9-3.7-3.4-9.6 2.7-4.3-.6-9.8 4.3-5.1 6.5-7.2 4.1-3 4 4.6-.7 2.2.7.7-2.4 10-2.5-.9 4.9 3.5 3.4-3.8 2.5 2.2 3.6 2.4.5-6.6 11.4-4.8 1.5-4.7 3.2-2.4.2-6.1 3.4h-4.4l-7.1 4.3 5.7.8.3 3.7-4.1 1.7 7.2 1.2-1.8 1.6 2.9 1.4 4.1-1 4.7-2.6 7.7-2.4.7 3.3 6.1 1.4-5 1.2-.5 2.6 8.4.2v-1.5l4.3-1 4.2 4.5 3.9 4.1 9.6-.1 2.2-3.5 4.6-1.8 6.2-2 2.3-3.1 5.2-2.3-7.2 7.5-7.1 6.2-.3 7.3-4.9-.2-3.8 1.3-4.4-2.2-12.6-1.2-8.9 2.1.2 4.1-3.7 3.2-4.9.1-1 8.5-5.2 4.4-1.4 2.4-5.8.9-1.4 5.3h-2.5l-1.3 2.9-7 4.6-3.2-1.1-4.9 3.2v4l5.3.3.2-3.7 6.5 1.6 2.7 4.3 3.2-2.7-1.5-2.2 3-3.5 1.5 1.7 3.6-3.1 2.4-.1 1.8-3.9 5.6 1.4 4.3-1.8 3.5.5 2.5-1.3 2.5 3 3-.2 4.1 3.1 4.7-.2-.9-2.8 3.7-1.5 1-2.7-1-4.6 3.3-3 2.7-.4 1.2-1.8 10.6-2.3 5.6.4 6.4 4 2.5-.8 7 .2 3.7 1.3 1.8-4.1 6.5-3 4.4 1.1 6.2-3.7 4.5.9 2.2-.3 3.1-2.1.8 2.1 3.8 2 4.3-2.7 9.6-.2 6.2-1.1 5.9 1.6 2.9.5 4.5-3.3 4.9-.9 4.3-3.6 2.9-.2 3.1.6-.7-3.1 7-4.3 4.3-.8.3-4-1.2-2.8 1.3-3.3-7.8.3-5.6 1.9-3.2.5-5.2-1.8-1.8-.4 1.8-1.5 1.7-.1.4-1-4.7-1.1-4.1 1.3 5.7-3.5 3.8.4 4.6-2-1.4-3.5h-4.5l3.4-2.7 2.5-2.2 2.7 2.1 4.2-2.7 1.7-2.4-2.1-.4 1.4-2-4.8-.4 1.9-3 3.1.7.9 2.1 3.5-4.1 3.4-1.3.6-7.9 3.1-7.3-2.6-2.7zm-172-58.4l-2.3 7 5-.7 7.2-6.5-1.2-2.8 1.1-4.5-9.8 7.5zm11.5 39.3l7.1-5-5.2.5-2.4-4.5-6.1.7s-1.6 4.4-1.5 4.5l8.1 3.8zm84 91.2l-8 3.7 3.9.7 4.1 2.6 4-.6V331l1.9-3-2.9.3-3-1.8zM91.3 55.1l-2.5 1.2-1.1 2.2-2 1 3.6 2.6 6.6-5.2-4.6-1.8zm42.3 80.1l-2.5-2.3-.4 3.6 3.2 2.5-.3-3.8zM84.2 68l.4-3-7.4-.7-2.3 1.2 4.1 3.7 5.2-1.2zm1.7-16.2l2.8 2.2 5.1-.8 5.2 1.2 3.7-4.9-1.8-1.2 1.7-3.9 5.1-4.4-.9-6.9-13.3 8.5 1.5 4.1-6.2-2.5-3.4 3.8 3.2 3-2.7 1.8zm.5 60l5.2-3.6-4.7-.3-.5 3.9zM76 87.3L73.7 90l-.4 2.8 4-2.2-1.3-3.3zm1.6-16.1v1.7l3.7 1.3 1.6-3.7-5.3.7zm3.2 4.1l-3-.5.3 3.1-1.6 3.3 1.2 3.6 3.4.7L80 81l1.5-2.5-.7-3.2z"/></svg>