<svg id="Layer_1" xmlns="http://www.w3.org/2000/svg" viewBox="0 0 175.7 175.5"><style>.st0{fill:#282829}</style><path class="st0" d="M271.8 87.4h11.4V16.5h-11.4V-3.8l54.2.2c5 0 9.6.9 13.8 2.7 4.2 1.8 7.8 4.2 10.8 7.3 3 3.1 5.4 6.6 7.1 10.7 1.7 4.1 2.5 8.4 2.5 13 0 5.4-.9 9.8-2.8 13.3s-4.6 6.4-8 8.5c3.7 2.3 6.6 5.2 8.7 8.7 2.1 3.4 3.2 7.6 3.2 12.6s-.9 9.7-2.6 13.9c-1.7 4.2-4.1 7.8-7.1 10.9-3 3.1-6.6 5.4-10.7 7.1-4.1 1.7-8.5 2.5-13.3 2.5h-55.8V87.4zm35.7-70.9v24.9H325c1.4 0 2.7-.3 3.9-1 1.2-.7 2.3-1.6 3.2-2.8.9-1.1 1.6-2.4 2.2-3.9.5-1.4.8-2.9.8-4.5 0-1.5-.3-3-.8-4.5s-1.3-2.9-2.2-4.1c-.9-1.2-2-2.2-3.2-3-1.2-.8-2.5-1.1-3.9-1.1h-17.5zm0 45.1v25.9H326c1.4 0 2.7-.4 4-1.1 1.2-.7 2.3-1.7 3.2-2.9.9-1.2 1.6-2.6 2.2-4.2.5-1.6.8-3.2.8-4.9 0-1.8-.3-3.5-.8-5s-1.3-2.9-2.2-4c-.9-1.1-2-2.1-3.3-2.7-1.2-.7-2.6-1-3.9-1h-18.5zm63.5 6.9c0-5.5 1-10.7 3-15.5 2-4.8 4.8-9.1 8.4-12.7 3.6-3.6 7.8-6.5 12.8-8.6 4.9-2.1 10.4-3.2 16.3-3.2s11.4 1.1 16.3 3.2c5 2.1 9.2 5 12.8 8.6 3.6 3.6 6.3 7.8 8.3 12.7 2 4.8 3 10 3 15.5s-1 10.7-2.9 15.6-4.7 9.1-8.2 12.8c-3.5 3.6-7.8 6.5-12.8 8.6-5 2.1-10.5 3.2-16.5 3.2-6.1 0-11.6-1.1-16.6-3.2-5-2.1-9.2-5-12.7-8.6-3.5-3.6-6.2-7.9-8.2-12.7-2-4.9-3-10.1-3-15.7zm21.9 0c0 2.9.5 5.5 1.5 8 1 2.4 2.3 4.5 4 6.3 1.7 1.8 3.6 3.1 5.9 4.1 2.2 1 4.6 1.5 7.1 1.5 2.6 0 5-.5 7.2-1.4 2.2-1 4.2-2.3 5.8-4.1 1.6-1.8 2.9-3.9 3.8-6.3.9-2.4 1.4-5.1 1.4-8 0-3-.5-5.8-1.4-8.2-.9-2.4-2.2-4.5-3.8-6.2-1.6-1.7-3.6-3-5.8-3.9-2.2-.9-4.6-1.3-7.2-1.3-2.5 0-4.9.4-7.1 1.3-2.2.9-4.2 2.2-5.9 3.9-1.7 1.7-3 3.8-4 6.2-1 2.3-1.5 5.1-1.5 8.1zm64.5-73h34.2v91.7h11.7v20.1h-46V87.2H469V15.6h-11.7V-4.5zM567.7 57zm-12.3-7.9c-1-.1-1.9-.2-2.9-.2-.4 0-.7.1-1 .1.3 0 .7-.1 1-.1 1-.1 1.9 0 2.9.2zM534 68.4s0 .1 0 0c0-2.9.5-5.5 1.4-7.9-.9 2.4-1.4 5-1.4 7.9zm.3 3.3c.2 1.7.6 3.3 1.2 4.8.7 1.8 1.7 3.4 2.9 4.8-1.1-1.5-2.1-3-2.9-4.9-.7-1.4-1-3-1.2-4.7z"/><path class="st0" d="M590.3 87.5v-92h-33.2v20.1h10.6v16.5c-2.5-1.1-5.2-2-8-2.6-2.8-.6-5.8-.9-8.9-.9-5.8 0-11.1 1-15.9 3.1-4.8 2.1-8.9 4.9-12.4 8.4s-6.1 7.8-8.1 12.6c-1.9 4.8-2.9 10-2.9 15.6s1 10.8 2.9 15.7 4.7 9.1 8.2 12.7c3.5 3.6 7.7 6.5 12.5 8.5 4.9 2.1 10.2 3.1 16 3.1 2.8 0 5.6-.4 8.4-1.2 2.8-.8 5.5-1.9 8.1-3.2v3.8H605V87.5h-14.7zm-21-11c-.9 2.4-2.2 4.5-3.8 6.3-1.6 1.8-3.6 3.1-5.8 4.1-2.2 1-4.6 1.4-7.2 1.4-2.5 0-4.9-.5-7.1-1.5-2.2-1-4.2-2.3-5.9-4.1-.4-.4-.7-.9-1.1-1.4-1.1-1.4-2.1-3-2.9-4.8-.6-1.5-.9-3.1-1.2-4.8-.1-1.1-.3-2.1-.3-3.2 0-2.9.5-5.5 1.4-7.9 0-.1 0-.2.1-.3 1-2.4 2.3-4.5 4-6.2 1.7-1.7 3.6-3 5.9-3.9 1.9-.8 4-1.1 6.1-1.2.4 0 .7-.1 1-.1 1 0 2 .1 2.9.2 1.5.2 2.9.5 4.3 1.1 2.2.9 4.2 2.2 5.8 3.9.8.9 1.6 1.9 2.2 2.9.6 1 1.2 2.1 1.6 3.3.9 2.4 1.4 5.2 1.4 8.2 0 2.9-.5 5.6-1.4 8zm-35.3-8z"/><path class="st0" d="M539.4 54.1c1.7-1.7 3.6-3 5.9-4 1.9-.8 4-1.2 6.1-1.2-2.1.1-4.2.4-6.1 1.2-2.2.9-4.2 2.2-5.9 4-1.7 1.6-3 3.7-4 6.2 0 .1 0 .2-.1.3 0-.1 0-.2.1-.3 1-2.4 2.3-4.5 4-6.2zm-81.9 57.6h17.3v71.9h8.1v9.1H465v-4.5c-1.8 1.8-3.8 3.2-6.1 4.2s-5 1.5-7.9 1.5c-3.7 0-7.2-.6-10.4-1.9-3.2-1.3-6-3.2-8.3-5.7-2.4-2.5-4.2-5.5-5.5-9.2-1.3-3.6-2-7.8-2-12.4 0-4.2.6-8.1 1.9-11.6 1.3-3.5 3.1-6.4 5.4-8.9 2.3-2.5 5.1-4.4 8.4-5.7s6.9-2 11-2c2.7 0 5.1.3 7.3.9 2.2.6 4.3 1.6 6.3 3v-19.6h-7.5v-9.1zm-5.4 73.6c2.9 0 5.4-.4 7.4-1.3s3.8-2.2 5.5-3.9v-30.7c-1.8-1.5-3.8-2.6-6.1-3.2-2.3-.7-4.6-1-7-1-2.3 0-4.5.4-6.6 1.3-2 .9-3.8 2.1-5.4 3.8-1.5 1.7-2.7 3.7-3.6 6.1-.9 2.4-1.3 5.2-1.3 8.3 0 3.4.4 6.4 1.3 9 .8 2.6 2 4.7 3.5 6.5 1.5 1.7 3.3 3.1 5.5 3.9 2 .8 4.3 1.2 6.8 1.2zm50.9-18.8c0 1.6.1 3 .3 4.3.2 1.3.6 2.5 1 3.7 1.3 3.5 3.4 6.2 6.3 8 2.9 1.8 6.1 2.7 9.8 2.7 2.9 0 5.6-.4 8.3-1.2 2.7-.8 5.5-2 8.5-3.7l4 6.7c-3.6 2.5-7.2 4.3-10.9 5.5-3.6 1.2-7.4 1.8-11.3 1.8-3.7 0-7.1-.6-10.3-1.9-3.2-1.2-5.9-3.1-8.2-5.5-2.3-2.4-4.1-5.5-5.4-9.1-1.3-3.6-1.9-7.9-1.9-12.7 0-3.9.5-7.6 1.6-11.1s2.7-6.5 4.9-9.1c2.2-2.6 4.9-4.7 8.1-6.2 3.2-1.5 7-2.3 11.2-2.3 4.1 0 7.6.6 10.4 1.9 2.8 1.3 5 2.9 6.8 5 1.7 2.1 3.1 4.4 4 7.1.9 2.6 1.5 5.4 1.9 8.1.2 1.3.3 2.7.3 4.1.1 1.4.1 2.7.1 4H503zm15.4-21.9c-2.3 0-4.3.3-6 1-1.7.7-3.2 1.6-4.4 2.8-1.2 1.2-2.2 2.7-2.9 4.5-.7 1.8-1.3 3.7-1.6 5.9H532c-.1-2-.5-3.9-1-5.7-.5-1.7-1.3-3.2-2.4-4.5s-2.4-2.3-4.1-3c-1.6-.6-3.7-1-6.1-1zm65.3 4.1c-.7-1-1.6-1.9-2.7-2.5-1.1-.7-2.3-1.1-3.7-1.4-1.3-.3-2.7-.5-3.9-.5a16 16 0 0 0-3.9.5c-1.2.3-2.2.8-3 1.4-.8.6-1.5 1.3-2 2.2-.5.9-.7 1.8-.7 2.9 0 1.8.6 3.3 1.7 4.4 1.1 1.1 3 2.1 5.6 3l10.5 3.7c4.5 1.5 7.8 3.6 9.9 6.2 2.1 2.6 3.1 5.7 3.1 9.4 0 2.4-.5 4.7-1.5 6.7s-2.3 3.8-4.1 5.2c-1.8 1.4-3.9 2.5-6.4 3.3-2.5.8-5.3 1.2-8.4 1.2-4.3 0-7.8-.7-10.4-2.1-2.7-1.4-4.8-3.2-6.2-5.5h-5.5v-9.1h11c0 1.5.3 2.8 1 3.9s1.5 2 2.6 2.6c1.1.7 2.3 1.2 3.7 1.5s2.7.5 4.2.5c1.4 0 2.7-.2 4-.5 1.3-.3 2.4-.8 3.4-1.5s1.7-1.4 2.3-2.4c.6-.9.8-2 .8-3.1 0-1.8-.6-3.3-1.7-4.5-1.1-1.2-3.1-2.4-5.9-3.3L567 167c-4.3-1.5-7.4-3.5-9.5-5.8-2.1-2.3-3.1-5.3-3.1-8.8 0-2.3.4-4.5 1.3-6.5s2.1-3.7 3.8-5.1c1.6-1.4 3.6-2.6 6-3.4 2.4-.8 5.1-1.2 8.1-1.2 3.9 0 7.2.5 9.9 1.6s5 3 7.2 5.6h5.1v9.1h-10.9c-.1-1.5-.5-2.7-1.2-3.8zm24.7-10.9h17.9v45.8h8.3v9.1h-26.1v-9.1h7.8v-36.7h-7.9v-9.1zm6.2-36.6c0-.9.2-1.8.6-2.6.4-.8.9-1.6 1.5-2.2.6-.6 1.4-1.1 2.2-1.5.8-.4 1.7-.6 2.7-.6.9 0 1.8.2 2.6.6.8.4 1.6.9 2.2 1.5.6.6 1.1 1.3 1.5 2.2.4.8.6 1.7.6 2.6 0 1-.2 1.9-.6 2.7-.4.8-.9 1.6-1.5 2.3-.6.7-1.3 1.2-2.2 1.5-.8.4-1.7.6-2.6.6-1 0-1.9-.2-2.7-.6-.8-.4-1.6-.9-2.2-1.5-.6-.7-1.1-1.4-1.5-2.3-.4-.8-.6-1.7-.6-2.7zm69.2 86.7c-1.8 1.9-3.9 3.4-6.3 4.5s-5.1 1.6-8.1 1.6c-3.7 0-7.2-.6-10.4-1.9-3.2-1.3-6-3.2-8.3-5.7-2.4-2.5-4.2-5.5-5.5-9.2-1.3-3.6-2-7.8-2-12.4 0-4.2.6-8.1 1.9-11.6 1.3-3.5 3.1-6.4 5.4-8.9 2.3-2.5 5.1-4.4 8.4-5.7 3.3-1.4 6.9-2 11-2 2.8 0 5.2.3 7.4.9 2.2.6 4.4 1.7 6.4 3.2v-2.8h9.9v52.7c0 8.7-2.1 15.3-6.2 19.7-4.1 4.5-10.5 6.7-19.2 6.7-1.9 0-3.9-.1-6-.4-2.1-.3-4.1-.7-6.2-1.4-2-.6-4-1.4-5.9-2.4-1.9-1-3.7-2.1-5.3-3.5l5.3-8c1.1.9 2.3 1.8 3.6 2.5 1.4.8 2.8 1.4 4.4 2 1.6.5 3.2 1 4.8 1.3 1.7.3 3.3.5 5 .5 2.7 0 5.1-.3 7.1-.8 2-.6 3.6-1.6 4.9-3 1.3-1.4 2.3-3.4 2.9-5.8.6-2.4 1-5.5 1-9.3v-.8zm-13.1-2.6c1.6 0 3.1-.2 4.5-.5 1.3-.3 2.6-.7 3.7-1.2s2.1-1.1 2.9-1.8c.8-.7 1.5-1.4 2.1-2.1v-30c-1.8-1.6-3.9-2.7-6.2-3.4-2.3-.7-4.8-1.1-7.2-1.1-2.3 0-4.5.4-6.6 1.3-2 .9-3.8 2.1-5.4 3.8-1.5 1.7-2.7 3.7-3.6 6.1-.9 2.4-1.3 5.2-1.3 8.3 0 3.4.4 6.4 1.3 9 .8 2.6 2 4.7 3.5 6.5 1.5 1.7 3.3 3.1 5.5 3.9 2 .8 4.3 1.2 6.8 1.2zm72.7-1.7h7.7v-25.1c0-4.2-1.1-7.4-3.2-9.6-2.1-2.2-5.2-3.3-9.2-3.3-2.3 0-4.6.5-6.9 1.6-2.3 1.1-4.5 2.5-6.6 4.1v32.2h7.7v9.1h-25.6v-9.1h7.6v-36.7h-7.6v-9.1h17.5v6.5h.1c1.2-1 2.4-2 3.7-2.9 1.3-.9 2.7-1.7 4.2-2.4 1.4-.7 3-1.2 4.5-1.6 1.6-.4 3.2-.6 5-.6 2.9 0 5.6.4 7.9 1.2 2.4.8 4.4 2 6 3.7 1.7 1.7 2.9 3.8 3.8 6.4.9 2.6 1.4 5.7 1.4 9.2v26.3h7.6v9.1h-25.6v-9zm-394.1 8.9h-66.8v-66.8h23.9v42.9h42.9zM681.5 62.4h-23.9V19.5h-43V-4.4h66.9zM41.2 122.6h11.4V51.7H41.2V31.4l54.2.1c5 0 9.6.9 13.8 2.7 4.2 1.8 7.8 4.2 10.8 7.3 3 3.1 5.4 6.6 7.1 10.7 1.7 4.1 2.5 8.4 2.5 13 0 5.4-.9 9.8-2.8 13.3s-4.6 6.4-8 8.5c3.7 2.3 6.6 5.2 8.7 8.7 2.1 3.4 3.2 7.6 3.2 12.6s-.9 9.7-2.6 13.9c-1.7 4.2-4.1 7.8-7.1 10.9-3 3.1-6.6 5.4-10.7 7.1-4.1 1.7-8.5 2.5-13.3 2.5H41.2v-20.1zm35.7-70.9v24.9h17.5c1.4 0 2.7-.3 3.9-1 1.2-.7 2.3-1.6 3.2-2.8.9-1.1 1.6-2.4 2.2-3.9.5-1.4.8-2.9.8-4.5 0-1.5-.3-3-.8-4.5s-1.3-2.9-2.2-4.1c-.9-1.2-2-2.2-3.2-3-1.2-.8-2.5-1.1-3.9-1.1H76.9zm0 45v25.9h18.5c1.4 0 2.7-.4 4-1.1 1.2-.7 2.3-1.7 3.2-2.9.9-1.2 1.6-2.6 2.2-4.2.5-1.6.8-3.2.8-4.9 0-1.8-.3-3.5-.8-5s-1.3-2.9-2.2-4c-.9-1.1-2-2.1-3.3-2.7-1.2-.7-2.6-1-3.9-1H76.9z"/><path class="st0" d="M134.1 136.4c0-.9.2-1.8.6-2.6.4-.8.9-1.6 1.5-2.2.6-.6 1.4-1.1 2.2-1.5.8-.4 1.7-.6 2.7-.6.9 0 1.8.2 2.6.6s1.6.9 2.2 1.5c.6.6 1.1 1.3 1.5 2.2s.6 1.7.6 2.6c0 1-.2 1.9-.6 2.7s-.9 1.6-1.5 2.3c-.6.7-1.3 1.2-2.2 1.5s-1.7.6-2.6.6c-1 0-1.9-.2-2.7-.6-.8-.4-1.6-.9-2.2-1.5-.6-.7-1.1-1.4-1.5-2.3-.4-.9-.6-1.8-.6-2.7zm-67.2 39.1H0v-66.9h23.9v43h43zM175.7 66.9h-23.9v-43h-42.9V0h66.8z"/></svg>