<svg id="Layer_1" xmlns="http://www.w3.org/2000/svg" viewBox="0 0 180 80"><style>.st0{fill:#282829}</style><path class="st0" d="M0 33.8h4.2v-26H0V.4l19.8.1c1.8 0 3.5.3 5.1 1s2.9 1.5 4 2.7 2 2.4 2.6 3.9c.6 1.5.9 3.1.9 4.8 0 2-.3 3.6-1 4.9-.7 1.3-1.7 2.3-2.9 3.1 1.3.9 2.4 1.9 3.2 3.2.8 1.3 1.2 2.8 1.2 4.6 0 1.8-.3 3.5-1 5.1-.6 1.5-1.5 2.9-2.6 4s-2.4 2-3.9 2.6c-1.5.6-3.1.9-4.9.9H0v-7.5zm13.1-26V17h6.4c.5 0 1-.1 1.4-.4.4-.3.8-.6 1.2-1 .3-.4.6-.9.8-1.4.2-.5.3-1.1.3-1.7 0-.6-.1-1.1-.3-1.7-.2-.6-.5-1.1-.8-1.5-.3-.4-.7-.8-1.2-1.1-.5-.2-.9-.4-1.4-.4h-6.4zm0 16.5v9.5h6.8c.5 0 1-.1 1.5-.4.5-.3.9-.6 1.2-1.1.3-.4.6-.9.8-1.5.2-.6.3-1.2.3-1.8 0-.7-.1-1.3-.3-1.8-.2-.6-.5-1.1-.8-1.5-.3-.4-.7-.8-1.2-1-.5-.2-.9-.4-1.4-.4h-6.9zm23.2 2.6c0-2 .4-3.9 1.1-5.7.7-1.8 1.8-3.3 3.1-4.6s2.9-2.4 4.7-3.1c1.8-.8 3.8-1.2 6-1.2s4.2.4 6 1.2c1.8.8 3.4 1.8 4.7 3.1 1.3 1.3 2.3 2.9 3 4.6.7 1.8 1.1 3.7 1.1 5.7s-.4 3.9-1.1 5.7c-.7 1.8-1.7 3.3-3 4.7-1.3 1.3-2.9 2.4-4.7 3.2-1.8.8-3.8 1.2-6.1 1.2-2.2 0-4.3-.4-6.1-1.2-1.8-.8-3.4-1.8-4.7-3.1-1.3-1.3-2.3-2.9-3-4.7-.6-1.9-1-3.8-1-5.8zm8.1 0c0 1.1.2 2 .5 2.9.4.9.8 1.7 1.5 2.3.6.6 1.3 1.1 2.1 1.5.8.4 1.7.5 2.6.5.9 0 1.8-.2 2.6-.5s1.5-.8 2.1-1.5c.6-.6 1.1-1.4 1.4-2.3s.5-1.9.5-2.9c0-1.1-.2-2.1-.5-3-.3-.9-.8-1.7-1.4-2.3-.6-.6-1.3-1.1-2.1-1.4-.8-.3-1.7-.5-2.6-.5-.9 0-1.8.1-2.6.5-.8.3-1.5.8-2.1 1.4-.6.6-1.1 1.4-1.5 2.3-.4.8-.5 1.8-.5 3zM67.9.1h12.5v33.6h4.3v7.4H67.9v-7.4h4.3V7.5h-4.3V.1zm40.4 22.5zm-4.5-2.9c-.4-.1-.7-.1-1.1-.1h-.4.4c.4.1.8.1 1.1.1zM96 26.8c0-1.1.2-2 .5-2.9-.3.9-.5 1.9-.5 2.9zm.1 1.2c.1.6.2 1.2.4 1.8.3.7.6 1.2 1.1 1.8-.4-.5-.8-1.1-1.1-1.8-.2-.6-.3-1.2-.4-1.8z"/><path class="st0" d="M116.6 33.8V.1h-12.2v7.4h3.9v6c-.9-.4-1.9-.7-2.9-1-1-.2-2.1-.3-3.3-.3-2.1 0-4.1.4-5.8 1.1-1.8.8-3.3 1.8-4.5 3.1s-2.2 2.8-3 4.6c-.7 1.8-1.1 3.7-1.1 5.7s.4 4 1.1 5.7c.7 1.8 1.7 3.3 3 4.7 1.3 1.3 2.8 2.4 4.6 3.1 1.8.8 3.7 1.1 5.9 1.1 1 0 2.1-.1 3.1-.4 1-.3 2-.7 3-1.2v1.4H122v-7.4h-5.4zm-7.7-4c-.3.9-.8 1.7-1.4 2.3-.6.6-1.3 1.1-2.1 1.5-.8.3-1.7.5-2.6.5-.9 0-1.8-.2-2.6-.5-.8-.4-1.5-.9-2.1-1.5-.2-.2-.3-.3-.4-.5-.4-.5-.8-1.1-1.1-1.8-.2-.5-.3-1.1-.4-1.8-.2-.3-.2-.7-.2-1.1 0-1.1.2-2 .5-2.9v-.1c.4-.9.8-1.7 1.5-2.3.6-.6 1.3-1.1 2.1-1.4.7-.3 1.5-.4 2.2-.4h.4c.4 0 .7 0 1.1.1.5.1 1.1.2 1.6.4.8.3 1.5.8 2.1 1.4.3.3.6.7.8 1.1l.6 1.2c.3.9.5 1.9.5 3 0 .9-.1 1.9-.5 2.8z"/><path class="st0" d="M96 26.9c0 .4.1.8.1 1.2-.1-.4-.1-.8-.1-1.2 0-.1 0-.1 0 0zm2-5.3c.6-.6 1.3-1.1 2.1-1.4.7-.3 1.5-.4 2.2-.5-.8 0-1.5.2-2.2.4-.8.4-1.5.8-2.1 1.5-.6.6-1.1 1.4-1.5 2.3.4-.9.9-1.7 1.5-2.3zm-30 25h5.5v22.8H76v2.9h-5.7v-1.4c-.6.6-1.2 1-2 1.3-.7.3-1.6.5-2.5.5-1.2 0-2.3-.2-3.3-.6-1-.4-1.9-1-2.6-1.8-.7-.8-1.3-1.8-1.7-2.9-.4-1.1-.6-2.5-.6-3.9 0-1.3.2-2.6.6-3.7.4-1.1 1-2 1.7-2.8.7-.8 1.6-1.4 2.7-1.8 1-.4 2.2-.6 3.5-.6.8 0 1.6.1 2.3.3.7.2 1.4.5 2 1v-6.2H68v-3.1zM66.3 70c.9 0 1.7-.1 2.3-.4.6-.3 1.2-.7 1.7-1.2v-9.8c-.6-.5-1.2-.8-1.9-1-.7-.2-1.5-.3-2.2-.3-.7 0-1.4.1-2.1.4-.7.3-1.2.7-1.7 1.2s-.9 1.2-1.2 1.9c-.3.8-.4 1.6-.4 2.6 0 1.1.1 2 .4 2.8.3.8.6 1.5 1.1 2.1.5.6 1.1 1 1.7 1.3.7.2 1.5.4 2.3.4zm16.1-6c0 .5 0 .9.1 1.4l.3 1.2c.4 1.1 1.1 2 2 2.5.9.6 1.9.8 3.1.8.9 0 1.8-.1 2.7-.4.9-.3 1.8-.6 2.7-1.2l1.3 2.1c-1.1.8-2.3 1.4-3.4 1.7-1.2.4-2.4.6-3.6.6-1.2 0-2.3-.2-3.3-.6-1-.4-1.9-1-2.6-1.7-.7-.8-1.3-1.7-1.7-2.9-.4-1.2-.6-2.5-.6-4 0-1.2.2-2.4.5-3.5s.9-2.1 1.6-2.9c.7-.8 1.5-1.5 2.6-2 1-.5 2.2-.7 3.6-.7 1.3 0 2.4.2 3.3.6.9.4 1.6.9 2.2 1.6.6.7 1 1.4 1.3 2.2.3.8.5 1.7.6 2.6.1.4.1.9.1 1.3V64H82.4zm4.9-7c-.7 0-1.4.1-1.9.3-.5.2-1 .5-1.4.9-.4.4-.7.9-.9 1.4-.2.6-.4 1.2-.5 1.9h9c0-.7-.1-1.3-.3-1.8-.2-.5-.4-1-.7-1.4s-.8-.7-1.3-.9c-.6-.2-1.2-.4-2-.4zm20.7 1.4c-.2-.3-.5-.6-.8-.8-.3-.2-.7-.4-1.2-.5-.4-.1-.8-.1-1.2-.1-.4 0-.9.1-1.2.2-.4.1-.7.2-1 .4-.3.2-.5.4-.6.7-.2.3-.2.6-.2.9 0 .6.2 1 .5 1.4.4.3.9.7 1.8 1l3.3 1.2c1.4.5 2.5 1.1 3.1 2 .7.8 1 1.8 1 3 0 .8-.2 1.5-.5 2.1-.3.6-.7 1.2-1.3 1.6-.6.5-1.2.8-2 1.1-.8.3-1.7.4-2.7.4-1.4 0-2.5-.2-3.3-.7-.9-.4-1.5-1-2-1.7H98v-2.9h3.5c0 .5.1.9.3 1.2.2.3.5.6.8.8.3.2.7.4 1.2.5.4.1.9.2 1.3.2s.9-.1 1.3-.2.8-.3 1.1-.5c.3-.2.6-.5.7-.7.2-.3.3-.6.3-1 0-.6-.2-1-.5-1.4s-1-.7-1.9-1.1l-3.3-1.2c-1.4-.5-2.4-1.1-3-1.8-.7-.7-1-1.7-1-2.8 0-.7.1-1.4.4-2.1.3-.6.7-1.2 1.2-1.6.5-.5 1.2-.8 1.9-1.1.8-.3 1.6-.4 2.6-.4 1.2 0 2.3.2 3.1.5.8.3 1.6.9 2.3 1.8h1.6v2.9h-3.4c-.1-.6-.2-1-.5-1.3zm7.9-3.5h5.7v14.5h2.6v2.9h-8.3v-2.9h2.5V57.8h-2.5v-2.9zm23.9 15.9c-.6.6-1.2 1.1-2 1.4-.8.3-1.6.5-2.6.5-1.2 0-2.3-.2-3.3-.6-1-.4-1.9-1-2.6-1.8-.7-.8-1.3-1.8-1.7-2.9-.4-1.1-.6-2.5-.6-3.9 0-1.3.2-2.6.6-3.7.4-1.1 1-2 1.7-2.8.7-.8 1.6-1.4 2.7-1.8 1-.4 2.2-.6 3.5-.6.9 0 1.7.1 2.4.3.7.2 1.4.5 2 1V55h3.1v16.7c0 2.8-.7 4.8-2 6.3-1.3 1.4-3.3 2.1-6.1 2.1-.6 0-1.2 0-1.9-.1s-1.3-.2-2-.4c-.6-.2-1.3-.4-1.9-.7-.6-.3-1.2-.7-1.7-1.1l1.7-2.5c.3.3.7.6 1.2.8.4.2.9.5 1.4.6s1 .3 1.5.4c.5.1 1.1.2 1.6.2.9 0 1.6-.1 2.2-.3.6-.2 1.2-.5 1.6-1 .4-.5.7-1.1.9-1.8.2-.8.3-1.8.3-2.9v-.5zm-4.2-.8c.5 0 1-.1 1.4-.2.4-.1.8-.2 1.2-.4.3-.2.7-.4.9-.6.3-.2.5-.4.7-.7v-9.5c-.6-.5-1.2-.9-2-1.1-.7-.2-1.5-.3-2.3-.3-.7 0-1.4.1-2.1.4-.7.3-1.2.7-1.7 1.2s-.9 1.2-1.2 1.9c-.3.8-.4 1.6-.4 2.6 0 1.1.1 2 .4 2.8.3.8.6 1.5 1.1 2.1s1.1 1 1.7 1.3c.8.3 1.6.5 2.3.5zm23.1-.6h2.5v-8c0-1.3-.3-2.3-1-3-.7-.7-1.7-1-2.9-1-.7 0-1.5.2-2.2.5s-1.4.8-2.1 1.3v10.2h2.5v2.9h-8.1v-2.9h2.4V57.8h-2.4v-2.9h5.6V57l1.2-.9c.4-.3.9-.5 1.3-.8.5-.2.9-.4 1.4-.5.5-.1 1-.2 1.6-.2.9 0 1.8.1 2.5.4.8.3 1.4.7 1.9 1.2s.9 1.2 1.2 2c.3.8.4 1.8.4 2.9v8.3h2.4v2.9h-8.1v-2.9zM28.4 72.3H3.9V47.8h8.8v15.7h15.7zm136.1-47.7h-8.8V8.9H140V.1h24.5zm-38 13.2c0-.5.1-1 .3-1.4.2-.4.5-.8.8-1.2.3-.3.7-.6 1.2-.8.5-.2.9-.3 1.5-.3.5 0 1 .1 1.4.3s.8.5 1.2.8c.3.3.6.7.8 1.2.2.4.3.9.3 1.4 0 .5-.1 1-.3 1.5-.2.5-.5.9-.8 1.2-.3.4-.7.6-1.2.8s-.9.3-1.4.3c-.5 0-1-.1-1.5-.3-.5-.2-.9-.5-1.2-.8-.3-.4-.6-.8-.8-1.2-.2-.5-.3-1-.3-1.5z"/></svg>